<?xml version="1.0" standalone="no"?>
<!DOCTYPE svg PUBLIC "-//W3C//DTD SVG 20010904//EN"
 "http://www.w3.org/TR/2001/REC-SVG-20010904/DTD/svg10.dtd">
<svg version="1.0" xmlns="http://www.w3.org/2000/svg"
 width="475.000000pt" height="475.000000pt" viewBox="0 0 475.000000 475.000000"
 preserveAspectRatio="xMidYMid meet">
<metadata>
Created by potrace 1.11, written by Peter Selinger 2001-2013
</metadata>
<g transform="translate(0.000000,475.000000) scale(0.100000,-0.100000)"
fill="#000000" stroke="none">
<path d="M2120 4709 c-793 -88 -1504 -589 -1850 -1303 -170 -350 -240 -655
-240 -1041 0 -369 74 -690 234 -1021 321 -662 916 -1128 1634 -1280 227 -48
467 -64 673 -44 584 57 1073 284 1475 685 399 398 627 890 684 1474 42 433
-71 951 -292 1338 -247 432 -592 756 -1032 969 -243 118 -508 195 -771 224
-105 12 -407 11 -515 -1z m175 -1239 c457 -27 846 -100 1205 -227 166 -59 448
-190 517 -241 120 -89 118 -270 -5 -356 -35 -25 -55 -31 -110 -34 -67 -4 -67
-4 -232 80 -227 116 -399 177 -680 241 -612 142 -1332 140 -1876 -4 -126 -33
-169 -36 -222 -13 -115 47 -170 192 -115 299 42 81 94 109 284 154 380 91 809
126 1234 101z m-115 -810 c338 -21 609 -70 902 -166 262 -86 587 -242 648
-310 42 -49 57 -104 42 -161 -23 -84 -81 -134 -165 -141 -44 -3 -61 1 -107 27
-256 144 -457 225 -720 291 -282 70 -478 93 -800 93 -319 0 -500 -22 -767 -94
-100 -26 -118 -28 -155 -18 -144 38 -190 190 -91 300 40 44 82 60 278 104 309
69 619 94 935 75z m51 -770 c255 -20 477 -63 687 -134 240 -82 497 -213 539
-275 46 -67 20 -171 -50 -208 -58 -29 -92 -21 -257 65 -177 92 -305 142 -470
184 -424 108 -878 108 -1398 2 -78 -16 -135 -23 -155 -18 -102 22 -149 148
-86 228 31 39 62 52 200 80 356 72 698 98 990 76z"/>
</g>
</svg>
